<?xml version="1.0"?><svg width="640" height="480" xmlns="http://www.w3.org/2000/svg">
 <metadata id="metadata17611">image/svg+xml</metadata>
 <defs>
  <clipPath id="clipPath17621" clipPathUnits="userSpaceOnUse">
   <path id="path17623" d="m0,2091.97998l0,-2091.97998l891.973022,0l0,2091.97998l-891.973022,0z"/>
  </clipPath>
 </defs>
 <g>
  <title>Layer 1</title>
  <g id="g17613">
   <g id="g17615">
    <g id="g17617">
     <g clip-path="url(#clipPath17621)" id="g17619">
      <path fill="#231f20" fill-rule="nonzero" id="path17625" d="m205.341904,11.762514c-2.1492,0.486034 -3.199203,-1.850977 -3.75,0c0.699585,0 1.412094,1.011035 0,1.247973c-1.987503,-1.247973 -5.023804,-1.184985 -2.500793,-3.75c-5.974213,0.564038 -5.273407,0.564038 -11.25,0c0.025787,6.513062 6.51329,-0.675 5.000381,6.252027c4.437912,-1.625977 4.537506,-2.825977 9.999619,-1.250977c0.012878,-1.650001 2.187881,-1.137012 2.500793,-2.499023zm46.249191,136.251005c3.025787,6.422974 3.225006,-4.302017 0,0l0,0zm5.000397,-6.252014c0,-0.836975 0,-1.661987 0,-2.498993c-1.250397,0 -2.499573,0 -3.75,0c0,0.837006 0,1.662018 0,2.498993c1.250427,0 2.499603,0 3.75,0zm1.250397,-30.000008c3.075012,1.938026 3.676208,-4.250977 1.249207,-3.75c-0.073822,0.762016 -0.1875,1.476013 -1.249207,1.251015c0,0.837013 0,1.66201 0,2.498985zm7.500031,-33.75c0.412476,-4.886971 2.14917,-13.748985 -1.250427,-16.250973c0.800415,5.024998 -1.625397,13.289974 1.250427,16.250973zm41.249969,38.751015c-0.912903,2.798988 -3.762909,-2.762985 -6.250793,-2.501991c3.10199,4.889977 8.024994,10.901993 3.75,16.250984c-2.237091,-1.922974 -0.999603,-7.325981 -4.999207,-7.500008c-2.312103,2.19902 0.324615,3.876015 2.499603,5.001015c-3.112488,0.576019 -9.236694,-6.564003 -13.749603,-8.751015c-0.6492,3.462013 6.712494,4.689003 4.999207,11.250008c-2.211304,-1.125 -3.6492,-3.011986 -6.249603,-3.750008c4.475403,5.937019 12.412506,8.424019 16.250397,15.000008c-4.837494,2.901001 -0.575409,8.001007 -2.500793,12.501007c-4.199982,1.287018 -1.948792,-3.887985 -2.499603,-6.248993c-4.236298,4.425003 -8.162109,-1.341019 -12.500397,-3.75c-2.537109,1.034988 3.00119,4.373993 3.75,6.248993c-0.698395,2.601013 -1.948792,2.648987 -3.75,1.251007c2.037903,5.048996 7.739105,6.422974 11.25,9.998993c0.025818,5.435989 0.412506,11.25 -1.249207,15c-4.199982,-1.637985 -8.600403,-3.062988 -11.249969,-6.248993c-1.962921,0.434982 1.099182,2.19899 -1.250427,2.498993c2.000397,-0.401993 4.4133,4.962006 -1.250397,2.498978c1.200012,5.052032 5.81369,6.687012 10.000793,8.751022c1.075806,4.148987 -0.412476,7.07399 1.249207,12.501007c-1.58551,2.886002 -7.125,-3.675003 -3.75,1.247971c-2.25,2.562012 -6.862488,-3.062988 -9.999603,-3.75c-3.549591,-0.212982 1.512909,8.175003 -3.75,6.252029c7.824615,4.709991 14.926208,8.747971 11.25,19.997971c-5.475006,0.912018 1.012512,-2.486969 -2.499573,-2.498978c-1.586731,0.287979 -1.637146,3.726013 0,3.75c-1.762512,2.087982 -6.862518,-3.062988 -10.000824,-3.75c0.363312,3.848984 0.75,2.099991 -3.75,6.248978c3.214508,3.462021 8.16449,5.175003 12.500397,7.5c-2.424591,2.412018 1.3125,5.025009 1.250427,8.751022c-1.200012,1.425003 -7.325439,4.173004 -5.000427,5.001007c-2.325012,2.246994 -6.849579,-3.927017 -11.25,-3.75c-2.012085,0.222 2.037903,5.936981 -3.75,4.997971c4.912506,5.925003 16.026611,5.637024 15,17.502029c-4.625397,-0.876007 -5.525391,1.973999 -5.000397,6.248993c-3.56131,-1.851013 -8.274597,-2.565033 -11.25,-5.001007c-5.411682,1.776001 -0.486298,6.927002 -7.5,3.75c3.825012,5.763 12.925812,6.237 18.75,10.002014c-1.011292,4.322968 2.337891,5.273987 0,7.5c-2.374207,2.333984 -3.137085,0.134979 -6.249603,0c0.550781,2.360992 -1.700378,7.536011 2.499603,6.248993c-5.748016,2.360992 -11.387085,-4.212006 -17.499603,-3.75c-7.311295,0.561005 -8.085907,6.074982 -15,7.5c-4.224594,-10.389008 -7.449585,-18.015015 -5.000381,-30c4.938293,6.884979 0.8508,-6.300018 2.500793,-17.498993c1.112091,-7.515015 2.861694,-16.851013 3.75,-20.001007c0.062088,-0.225006 2.261703,0.162003 2.499588,0c-0.037506,-1.215012 -1.523392,-0.975006 -2.499588,-1.251022c5.099991,-16.898987 10.863297,-48.611969 11.25,-69.998978c-1.011307,10.101013 -7.700409,22.334976 -7.5,37.5c-3.973816,-5.57399 0.8367,-15.69899 2.499588,-24.998993c1.176605,-6.576004 -0.312897,-13.626007 3.75,-17.502029c3.413712,-0.911972 2.512497,2.487015 5.000427,2.502029c1.361694,-5.115005 -4.300812,-3.201004 -5.000427,-6.252014c0.9375,-7.39798 3.576599,-13.089005 3.75,-21.248993c1.801208,0.287994 0.437103,3.726013 2.499603,3.75c-0.798004,-4.137016 -1.011322,-17.076012 1.250397,-25.001991c0.462921,-2.124023 -0.975006,-2.361 -2.499573,-2.499023c2.774963,-4.412987 7.562073,-10.275002 4.999176,-16.250977c8.125793,1.464005 -1.699188,9.614983 1.250397,17.501991c3.164093,-6.42601 3.726593,-15.437988 5.000427,-23.751015c-4.700409,-0.950974 -0.862518,6.639 -6.250824,5.001015c2.550018,-4.412987 -4.562103,-8.162987 0,-16.250977c-3.711304,-1.28701 -3.174591,-6.837009 -7.5,-7.5c0.200394,-1.461033 2.276993,-1.049999 3.75,-1.251011c-5.072998,-3.375 -10.536301,-8.310024 -14.999985,-8.748013c5.474991,-3.10199 -3.823822,-2.237988 0,-7.5c-1.262115,-2.075977 -5.312119,-1.362011 -7.5,-2.501987c0.70079,-6.225002 -8.786713,-7.160999 -4.999207,-12.498011c-2.238297,-0.162012 -2.637909,1.524023 -5.000412,1.248009c-4.574997,-8.748009 -18.849594,-7.823986 -27.500381,-12.498009c-3.737106,1.685999 -5.5242,5.312988 -6.249603,9.999023c-5.1129,6.125975 -18.6996,11.375975 -24.999603,2.498985c0.099609,-4.898985 2.1996,-7.799999 3.75,-11.249998c3.412506,1.151989 -1.750793,3.914978 0,7.499998c4.6371,-8.273985 11.936707,-13.898986 17.499603,-21.248985c-4.050003,2.087988 -2.662506,1.82395 -8.750397,1.250977c19.962891,-7.737011 40.150787,4.449023 56.25,8.748011c-10.012512,2.501989 -22.54921,-3.273011 -36.249619,-1.248011c-1.836288,4.749023 5.587509,0.249023 3.75,4.998011c9.912918,-2.010023 19.524612,1.037987 31.250412,3.75c7.811707,1.799999 11.837097,8.376011 18.75,11.25c5.687088,2.363998 12.099594,4.187988 17.499588,8.751011c8.626221,7.275002 15.587097,23.786972 22.5,36.248985c2.912109,5.25 4.4133,16.014 7.5,23.751015c-3.312897,2.825974 -7.112091,-4.5 -11.25,-5.001015c6.2883,6.21299 14.912109,10.089005 20.000397,17.501991"/>
      <path fill="#ffffff" fill-rule="nonzero" id="path17627" d="m264.091492,61.760525c3.399597,2.501987 1.662872,11.364002 1.250397,16.251011c-2.875824,-2.960999 -0.450012,-11.226013 -1.250397,-16.251011"/>
      <path fill="#ffffff" fill-rule="nonzero" id="path17629" d="m259.091095,108.011497c2.427002,-0.501015 1.825806,5.687988 -1.249207,3.75c0,-0.837013 0,-1.66201 0,-2.498985c1.061707,0.224998 1.175385,-0.488998 1.249207,-1.251015"/>
      <path fill="#ffffff" fill-rule="nonzero" id="path17631" d="m256.591492,139.262512c0,0.837006 0,1.662018 0,2.498993c-1.250427,0 -2.499603,0 -3.75,0c0,-0.836975 0,-1.661987 0,-2.498993c1.250397,0 2.499573,0 3.75,0"/>
      <path fill="#ffffff" fill-rule="nonzero" id="path17633" d="m251.591095,148.013519c3.225006,-4.301987 3.025787,6.423019 0,0l0,0"/>
      <path fill="#231f20" fill-rule="nonzero" id="path17635" d="m49.091011,291.761505c0.337498,-1.701019 -0.774601,-4.875 -1.249199,-2.498993c-0.337502,1.700958 0.774597,4.875 1.249199,2.498993zm35.000481,-76.248016c0.287109,-1.940994 4.800003,-5.837997 1.250412,-7.5c0.549591,2.771988 -3.862503,6.774017 -1.250412,7.5zm3.75,57.498016c0.337509,-1.701019 -0.77459,-4.875 -1.250397,-2.498993c-0.337494,1.700958 0.77581,4.875 1.250397,2.498993zm1.250412,-77.498993c1.224594,-3.414001 4.324188,-11.439011 2.499588,-13.749023c-1.624191,2.637009 -6.574188,13.548004 -2.499588,13.749023zm11.25,-68.751015c-0.075005,3.974998 4.424995,14.798988 3.75,11.250008c-2.162102,-2.837997 0.487495,-10.487999 -3.75,-11.250008zm7.5,-87.501011c-1.725006,0.051014 -2.750404,-0.584984 -3.75,-1.247974c0.487495,2.147976 -1.850403,3.197975 0,3.75c0.362091,-2.601013 3.386696,1.847973 3.75,-2.502026zm-3.75,78.749996c4.562096,-0.485992 4.699196,-11.909981 3.75,-13.748985c-3.8871,1.950005 -2.125809,9.53701 -3.75,13.748985zm7.5,-23.747971c-1.71331,-5.262009 5.062492,-13.227028 0,-13.752029c1.6875,6.039001 -5.162102,11.940018 0,13.752029zm2.499596,-26.25c3.474594,1.997971 3.462898,-5.399998 1.250404,-5.001011c0.099594,2.174999 -0.275406,3.887989 -1.250404,5.001011zm3.75,-44.999998c-0.662102,-1.800001 4.875,-3.051014 1.250397,-3.75c0.150002,1.275 -5.388298,2.522974 -1.250397,3.75zm-11.25,307.499968c4.6008,3.200409 9.8004,7.950012 15,6.248413c-1.624207,-4.247986 -7.200005,-4.573792 -11.25,-7.49939c-8.225403,-5.937012 -18.812103,-16.748993 -22.500008,-27.498016c-1.199997,-3.489014 -0.574188,-12.888 -2.499588,-11.25c-0.412498,7.035004 3.124191,12.024017 -1.250412,16.248016c5.27581,10.424988 13.6875,17.613007 22.500008,23.750977zm13.749596,-298.751995c0.175804,-1.473009 2.225403,-2.834986 0,-3.75c-0.174599,1.476013 -2.224197,2.837988 0,3.75zm2.500801,383.750378c0.337502,-1.697998 -0.775803,-4.873779 -1.250397,-2.499573c-0.337502,1.701599 0.775795,4.87619 1.250397,2.499573zm-8.750397,-242.498398c1.949997,4.298996 10.212898,7.536011 15.000008,5.001022c-0.812119,-5.865021 -9.137108,-4.188034 -15.000008,-5.001022zm9.999596,-141.25198c1.000801,-4.460999 6.600006,-10.848009 5.000412,-13.748985c-0.387909,5.075975 -8.637909,8.813965 -5.000412,13.748985zm-3.75,187.503002c1.850403,7.761002 8.575806,0.035995 15,4.998001c-2.162109,-4.5 -9.474602,-3.863998 -15,-4.998001zm11.25,-67.5c0.975006,-0.276016 1.45079,-1.053009 1.250397,-2.501984c-4.599594,-1.374023 -8.261696,-1.59903 -14.999992,-2.499023c0.212097,1.875 -0.450005,4.610992 1.250397,5.001007c3.150002,-0.726013 10.987511,3.485992 15.000008,1.248001c-0.975006,-0.276001 -2.463303,-0.038986 -2.500809,-1.248001zm3.75,194.998199c0,-0.837921 0,-1.662903 0,-2.500793c-0.8367,0 -1.661697,0 -2.499603,0c0,0.837891 0,1.662872 0,2.500793c0.837906,0 1.662903,0 2.499603,0zm2.500809,-220.000191c-2.225418,-0.612015 0.537888,-1.33799 1.249191,-2.498985c-1.9617,-0.126015 -4.337097,0.161972 -3.75,-2.502029c-6.437103,2.175003 -4.837494,-3.473984 -13.749596,0c1.512894,0.264 0.762894,1.389 0,2.502029c4.824608,0.623985 10.962898,6.473984 16.250404,2.498985zm1.249191,370.000191c0.200409,-0.874207 -0.437103,-7.273804 -1.249191,-3.75c-1.100418,4.763672 0.675003,6.263672 1.249191,3.75zm1.250397,-465.001202c-0.312897,-4.39801 7.537506,-8.487011 1.250412,-11.25c0.212082,3.639002 -4.387497,8.826014 -1.250412,11.25zm-13.749588,67.499996c5.287491,-0.687012 20.499588,6.75 17.499588,-1.248009c-0.686707,6.387016 -5.137497,-0.264 -5.000397,-2.501991c-2.586304,0.737991 -8.211304,-1.548004 -8.749207,1.251015c4.762512,2.162987 -4.863289,-0.099022 -3.749985,2.498985zm-1.250404,238.750809c7.387489,2.213684 16.387489,9.412476 23.750404,7.5c-9.025803,-0.575409 -17.1129,-8.700012 -23.750404,-7.5zm22.499992,-262.498817c0,-1.661972 0,-3.338997 0,-5.000977c-4.012497,-0.438026 -7.712097,3.21299 -11.25,1.250977c0.700806,0 1.425003,-1.014 0,-1.250977c-0.387894,1.689003 -1.7742,2.387993 -1.250397,5.000977c4.163696,0 8.337891,0 12.500397,0zm3.75,-29.999996c-0.1875,1.674023 1.962906,6.888023 2.499603,3.75c-2.186691,-2.550003 0.9375,-2.450977 -1.249191,-5.000977c-1.662918,0 -3.337509,0 -5.000412,0c1.437897,3.938999 -1.9617,3.039001 -2.499603,5.000977c2.362503,-0.275978 2.762115,1.413025 4.999207,1.248009c0.213303,-1.875 -0.448792,-4.611 1.250397,-4.998009zm2.499603,386.248814c-0.2742,1.576172 -1.949997,2.549988 1.250397,2.499573c-2.974197,-4.524597 -2.274597,-12.724182 -9.999603,-12.499207c1.599609,5.701233 1.511703,13.201233 8.749207,9.999634zm5.000397,-86.25c-3.950394,0.612885 -4.412094,-2.25 -8.750397,-1.250427c-1.536301,4.150818 8.450409,3.063293 8.750397,1.250427zm87.500412,-259.999832c-1.3125,7.251015 5.411697,0.525002 0,0l0,0zm-193.750893,218.736038c0.813297,-5.009979 5.9133,13.626007 15,15.015015c-10.262104,0.225006 -17.248833,-18.801025 -26.249996,-20.001007c-0.199219,-1.449005 0.275394,-2.226013 1.250393,-2.498993c-1.250393,-1.725006 -2.062504,0.536957 -3.75,-2.499023c1.562111,-17.000977 -3.024609,-22.389008 3.75,-33.75c6.800404,0.285004 4.625404,9.537018 5.000404,16.248016c2.762096,-0.150024 0.524998,-5.301025 1.249199,-7.5c3.376167,5.036987 2.463299,-7.449005 2.500797,-7.5c0,-0.012024 2.449203,1.511993 2.499603,1.251007c0.287098,-1.776031 -2.737503,-6.813019 -1.250401,-9.999023c1.1754,-2.525986 3.9375,-2.541 6.250801,-6.251999c-0.925804,-2.826004 -7.012501,-0.485992 -10.000801,-1.248001c-0.311703,-4.889984 4.462498,-12.137985 -3.75,-11.25c3.599998,-3.488998 7.7883,-6.389984 16.250397,-5.000977c2.287498,0.272964 -1.662895,-8.913025 5.000404,-7.5c-1.7379,-2.850006 -8.700001,-0.462021 -12.500401,-1.251022c1.038265,-7.463989 0.462898,-7.724991 -1.250401,-13.748978c5.438671,-2.352036 18.13839,-3.126022 15,-9.999023c-0.924599,-2.825974 -7.011333,-0.488998 -9.999603,-1.250977c3.575405,-5.664001 -2.274597,-8.139008 0,-12.501022c-10.912498,2.937012 8.237106,-4.998001 13.749687,-4.998001c1.437904,-2.625 -0.761696,-4.875 2.500809,-7.5c-0.438301,-1.55098 -7.200089,1.02301 -11.250092,0c1.249199,-7.364975 -2.412899,-11.600983 4.999199,-16.250977c5.088387,0.75 9.200493,2.459976 8.750488,8.750977c1.562096,-4.539001 -2.212502,-17.837982 3.749992,-21.251984c-2.4375,-1.937988 -6.21209,5.399994 -12.500481,3.75c4.338387,-4.050003 -4.337105,-7.212021 0,-11.25c-2.51133,-0.426025 -3.911705,0.248978 -3.75,2.501984c-7.086334,-9.287987 20.562981,-4.053009 20.000481,-15.003006c-0.174591,-2.060997 -8.574593,-2.060997 -8.750397,0c-0.686691,-5.561974 -7.736786,-4.760994 -7.500084,-11.25c2.363785,0.138031 0.862495,4.140015 3.750084,3.75c0.513306,-1.547974 1.426208,-3.635994 3.75,-6.248985c-2.237091,-0.16201 -2.636696,1.523987 -4.999191,1.251015c6.386696,-5.376015 18.512093,-5.562012 18.75,-13.752029c-6.225006,0.315018 -5.313309,0.513031 -10.000801,1.251015c-1.262108,-4.148987 -6.911705,-3.91201 -6.249603,-9.998985c4.299599,-3.627029 -0.774605,4.736977 3.75,6.248985c-2.099998,-1.71299 5.424599,-9.548988 1.250404,-8.751015c3.324593,-6.260994 16.299591,-2.861969 16.249191,-12.497971c-0.686691,-1.800003 -7.249191,0.986977 -9.999603,1.247971c-0.125397,-3.524994 -4.71209,-5.309982 -1.250397,-8.747971c-3.212097,0.098984 -1.787094,5.822975 -4.999191,2.498985c-0.050407,-8.699997 9.699593,-7.92601 15,-11.249996c3.337494,-2.100002 3.761696,-5.285999 7.5,-6.248989c0.387894,-10.563023 -0.700806,-10.788025 1.249191,-18.749998c2.712898,-0.213026 0.563705,4.436972 1.250397,6.248987c5.362503,-2.601013 1.250412,-9.276014 0,-9.998987c2.83831,-2.952026 3.738312,1.562988 5.000412,3.75c3.537895,-5.538025 7.199997,-10.662012 7.5,-16.25105c-2.900406,3.339038 -5.662506,6.837049 -7.5,11.250037c-1.887909,-9.398989 9.912895,-15.911976 19.999191,-17.498987c-2.061302,3.347973 -5.299202,5.537988 -7.5,8.747972c7.563309,-1.610961 14.1129,-15.035961 30,-12.497972c-3.536697,3.137987 -7.423798,5.912989 -9.999603,9.99895c9.225006,-6.611939 20.0625,-11.612988 36.249603,-11.249999c-2.550003,1.362011 -6.536697,4.563061 -8.749207,2.499022c-1.250397,0.990015 0.4617,4.377028 -2.500793,6.252028c0.300003,3.224999 2.150406,-1.712988 5.000397,0c3.337509,-2.214039 -3.200394,3.212988 -6.249588,2.49895c2.512497,2.874024 -1.687515,6.624022 -3.750015,8.75105c1.299606,8.324999 -1.362885,15.848986 0,26.249998c0.23671,1.010998 1.249207,1.247974 1.249207,2.498989c36.300003,2.451012 61.725006,15.773983 87.500397,28.748981c2.25,4.476013 0.849609,10.152031 -1.250397,13.752029c-28.0746,-5.802025 -52.999191,-25.238998 -90,-26.25c-3.375,0.375 -2.237091,5.261978 -4.999191,6.248985c3.75,2.937012 14.962494,5.001015 19.999191,2.498985c23.512512,9.402031 49.351196,16.476013 71.25,27.501015c-0.161697,2.237991 1.525803,2.637016 1.250397,5.001015c0.050415,3.197975 -0.924591,1.523987 -2.499588,1.247971c-2.425797,1.740021 -1.863297,6.477028 -3.75,8.751015c-29.275803,-9.074997 -52.624207,-24.900002 -87.500412,-24.998985c-1.862106,1.061974 -1.812897,4.022972 -2.499588,6.248985c3.399597,2.826012 14.424591,5.676018 17.499588,1.251015c-0.624588,2.612991 3.975006,2.19899 6.249603,4.997971c25.763702,4.650002 46.863312,13.977028 67.500015,23.751022c0.88829,6.710999 -0.98671,10.676987 -2.499619,15c-5.987091,-1.248016 -17.773788,-5.687988 -30,-9.998993c-9.687881,-3.414001 -21.824997,-6.051025 -26.25,-8.751015c-0.2742,-0.173988 1.662903,-1.92601 1.250397,-2.498985c-4.3629,3.734985 -6.650391,-2.601013 -12.500397,-1.251015c0.662109,-0.998985 1.299606,-2.025002 1.250397,-3.75c-9.738281,7.764 -25.325378,-7.937988 -28.750778,7.5c4.887894,1.737007 10.7379,5.963997 16.250397,3.750008c2.287491,-0.923996 1.587906,-9.300011 2.499603,-1.248016c20.725784,7.698013 52.563293,14.874023 73.750793,26.25c0.986694,6.174026 0.350388,8.024994 -1.250412,13.749023c-28.962891,-3.264008 -66.287094,-25.740021 -93.75,-22.5c-2.600388,0.32399 -0.337494,5.486969 -2.499588,6.248978c4.849197,3.026993 14.649597,5.061005 21.249588,2.501999c-0.686707,2.771988 2.388306,1.77301 2.499603,3.75c12.813293,1.974014 25.475403,5.960999 37.500015,9.999023c11.587494,3.887985 24.800385,6.300003 32.500793,15c-1.150803,4.274994 -1.875,8.94899 -3.75,12.500977c-2.137497,-3.362991 -6.025803,-0.590988 -8.750412,-1.250977c-3.800385,-0.927032 -7.974594,-3.488998 -12.500381,-5.001022c-21.898819,-7.349991 -42.562515,-16.298981 -72.499207,-17.498978c-1.863297,1.061966 -1.812912,4.022964 -2.500809,6.248978c2.262909,5.661011 13.951202,1.875 18.75,5.001022c2.400009,-0.138031 -1.461304,-4.188034 0,-7.5c2.763306,3.461975 2.888702,5.849991 3.75,8.750977c26.126999,5.124023 50.362503,12.135025 71.250015,22.5c1.5,3.896988 -0.249619,10.035019 -2.499619,13.749023c-30.675003,-3.09903 -64.249207,-26.088028 -99.999596,-20.001022c-4.749603,-2.637009 -5.849998,-2.187012 -13.750801,-2.498978c5.6754,1.949997 1.613708,8.834976 13.750801,7.5c3.049202,-1.263031 -2.450401,-5.526016 3.750008,-5.001022c0.399582,2.901016 -0.200409,4.800003 -1.250404,6.251999c35.388298,5.862015 69.212105,13.287003 96.249611,27.498001c-1.037109,5.625 -2.087112,11.25 -6.249619,13.751999c-1.812881,-0.551987 0.125412,-1.100983 0,-2.501999c-19.662888,-0.351013 -45.974991,-14.549988 -71.25,-17.498978c-1.674591,0.824997 -2.324997,2.672974 -2.499588,5.000977c-1.574997,-0.314987 -1.2621,-2.489975 0,-2.501999c-5.650803,-7.898987 -24.987907,-6.974991 -30,-2.498978c-0.35041,2.012985 1.187096,2.147964 1.249191,3.75c2.849998,0.347977 4.700401,-0.300003 5.000404,-2.499023c-1.162506,5.649017 17.700005,9.087006 22.499992,4.998001c1.475403,1.862991 3.1371,3.525009 5.000397,5.001022c25.374603,4.199997 47.812515,11.348984 69.999603,18.75c2.075409,5.210999 -0.887085,12.248993 -5.000381,15c-1.523407,-0.938995 6.050385,-8.088043 1.250381,-12.501007c1.149612,2.138977 -3.474594,11.048981 -3.75,11.25c-21.774597,-0.324005 -46.587906,-15.062988 -68.750397,-15c-7.862091,-3.714005 -25.8246,-8.139008 -34.999191,-2.498993c1.436691,1.586975 6.787498,4.223969 0,3.75c5.936691,6.959991 7.762497,11.687988 4.999191,22.5c-2.8125,-0.524994 -0.036293,-6.639008 -2.499596,-7.5c-0.537903,1.472961 -1.050003,6.200958 -2.499596,9.998993c3.8004,5.537964 8.8125,14.537964 6.249596,22.5c2.450401,-4.236023 2.125801,4.724976 4.812904,9.737976c-1.437904,-1.787994 -3.200409,-3.587982 -4.812904,-3.489014c2.037903,-2.561951 -2.325005,-4.223969 -3.499199,-7.646973c2.049599,13.199982 15.599998,23.684998 28.498795,28.897797c-2.99881,-4.49881 -8.561691,-6.436798 -12.499199,-10.000793c14.112907,5.100006 38.562889,28.577393 59.999992,15.00119c-2.975388,-2.287506 -4.612488,3.011688 -8.750397,-2.500793c-0.787491,2.699982 -5.0121,1.962891 -6.074997,4.388702c0.487503,-3.875397 -13.699203,-3.787506 -11.424591,-8.138702c-1.775406,-0.112518 -3.537918,-0.212097 -3.75,1.250397c-3.562515,-5.086792 -23.6754,-12.187775 -28.750809,-19.999786c-1.449593,-0.198029 -2.224197,0.276001 -2.499588,1.251007c-4.099205,-2.21402 1.462502,-5.063995 2.499588,-6.252045c-3.523796,-3.635986 -1.562088,3.738037 -6.249596,2.502045c-6.087906,-14.076019 -5.775002,-26.502045 2.499596,-38.751007c-3.936302,1.062012 -5.186691,4.812012 -6.249596,8.751007c-4.387505,-0.33902 3.1371,-4.662018 -1.250404,-5.001007c10.713303,-14.873993 27.975006,2.198975 23.750397,21.251984c2.687103,-5.339996 2.737503,-2.277008 1.250412,2.499023c3.549591,1.709991 0.149994,-0.975006 1.249191,3.75c2.8629,12.260986 21.113708,22.574982 35.000397,27.499176c3.262497,1.163696 6.725403,0.138306 9.999603,1.249207c3.012894,1.025391 5.375397,4.139099 7.5,5.000397c1.425003,0.588318 4.687515,-2.798401 2.500809,1.250397c3.437088,-0.725403 5.224197,-3.111298 8.749207,-3.75c-2.0625,3.350403 -5.29921,5.5383 -7.5,8.749207c6.262497,3.738281 12.901184,7.101593 22.5,7.5c-11.261703,2.075409 -31.699219,2.5383 -41.250015,-1.249207c-2.737503,0.188721 -2.687103,3.151215 -2.499603,6.249603c-0.275391,5.625 -2.25,-14.573395 -7.400391,-2.724609c0.9879,-1.863281 0.412491,6.149994 -0.099609,7.725006c-3.3246,10.299622 -9.112503,38.251221 -11.25,56.25c-0.375,3.161713 -1.5504,5.199615 -1.250397,7.5c1.725006,13.137909 9.625793,10.951202 13.750793,18.75c3.337509,0 6.662109,0 9.999603,0c-24.225006,-0.499207 -25.999207,-37.025391 -12.500397,-51.250793c-3.5121,-17.072998 25.338303,-17.599213 35.000397,-8.749207c-5.385895,2.762115 3.164108,5.7117 5.000412,8.749207c-7.149612,-4.6875 -17.450409,-3.487518 -23.750412,-7.5c2.000397,-2.160919 5.625,-2.7117 9.999603,-2.499603c-10.648804,-5.625 -29.936691,10.350006 -30,24.999603c2.412903,-0.510895 0.9879,-4.849213 5.000397,-3.75c-4.699188,9.213287 6.662109,12.263702 6.249603,21.250793c-5.9496,0.125397 -5.925003,-5.737488 -11.25,-6.250793c-1.699203,15.9375 12.775803,19.062897 27.500397,23.750397c-3.275391,5.975403 -10.5,6.576599 -16.250397,6.249603c-9.099609,-0.510895 -14.237091,-8.372986 -21.249603,-8.749207c3.975006,1.850403 4.875,6.788696 8.750397,8.749207c2.687103,29.239502 -1.45079,62.800751 -1.250397,91.250397c0.312897,1.364075 2.4879,0.85083 2.499603,2.499573c-2.424591,3.800415 1.45079,10.176636 -2.499603,10.000793c-5.987091,-0.287048 0.963303,-4.437866 0,-7.5c-2.237091,-25.924194 -6.337494,-53.037872 -6.249588,-82.499969c0.011688,-3.099579 1.749588,-5.5383 1.249191,-8.750397c-1.374603,-8.912109 -7.624191,-15.548401 -11.25,-23.750397c-4.873795,-11.010895 -0.587097,-30 2.500793,-39.999603c-0.887085,-1.386292 -6.925781,-1.185883 -8.750397,2.499603c-3.75,-0.823792 1.200012,-2.673004 0,-4.999207c-4.074585,-1.699188 -9.324585,3.001221 -9.999588,-2.500793c-2.900406,3.351593 -4.925407,7.576202 -5.000404,13.750793c2.1129,0.113708 8.499596,0.813293 13.749596,1.249207c-0.6996,2.600403 -1.949997,2.650787 -3.75,1.250397c-0.598801,6.8508 5.450409,12.314117 2.500809,17.499603c5.137497,-2.361298 1.2621,-13.735504 3.75,-18.75c-0.300003,-0.887085 -1.713303,-4.39801 -2.9133,-3.823792c4.150803,-5.475006 5.625,10.849182 4.162491,21.324585c-0.448792,3.188721 -3.1371,5.487915 -3.75,8.749207c-1.349991,7.188293 4.375793,17.614502 -1.249191,13.750793c0.650391,3.1008 3.049194,4.450806 4.999191,6.249603c-0.536697,14.451599 3.038696,21.137085 -1.249191,33.75c-0.900009,3.400787 5.900391,-0.899994 4.999191,2.499603c1.2258,3.487488 -2.473801,1.137878 -2.499603,1.250397c-1.074585,4.251587 1.387497,9.887085 1.250412,15c-0.062119,2.463287 -2.412918,1.851593 -2.500809,2.499603c-0.3246,2.513702 1.375809,4.814087 1.250397,7.5c-0.275391,5.838287 -2.8629,11.689484 -6.249588,14.999969c-3.175797,-33.210876 -2.913315,-67.223389 -10.000809,-106.249176c-1.699196,0.387909 -1.037102,3.124207 -1.249199,4.999207c-2.562897,-3.450012 -4.650002,-6.986694 -5.000397,-7.5c-0.537903,-0.774597 0.363297,-2.123413 0,-2.499603c-2.299202,-2.349609 -12.812096,0.338684 -8.750404,-16.250397c-1.886696,3.524994 -2.1996,8.62619 -2.499596,13.750793c-5.837097,-6.1008 -0.212097,-18.311707 1.250404,-25.000793c2.824196,0.925781 0.487495,7.013702 1.249191,10.000793c4.188309,-14.850006 4.612503,-33.438293 7.5,-48.75c0.387901,-2.049591 0.599998,-3.298798 2.500809,-3.75c-21.400803,-11.525391 -44.124603,-21.700195 -51.250893,-47.500183c-1.762497,5.289001 -0.911705,6.501007 -1.249199,8.751007c0.387863,2.15097 4.337189,-1.626007 3.750092,3.75c2.474991,1.199982 0.3246,1.223969 -0.862503,0.047974c-0.200401,-0.825012 -0.337502,-1.686005 -0.387901,-2.546997c-0.537987,1.134003 -0.200493,1.985992 0.387901,2.546997c3.587097,14.703003 29.525398,24.676208 39.611694,32.450409c-22.149597,-10.760406 -46.723915,-19.112396 -54.999683,-43.748383c-1.862103,-0.051025 -1.812904,7.424988 -2.499603,1.250977c-3.387897,1.134003 1.249203,4.359009 1.249203,6.234009zm247.739281,-217.647034c-0.125397,-0.761978 -0.200409,-1.535995 -0.237915,-2.324997c-0.112488,0.863998 0,1.626007 0.237915,2.324997"/>
      <path fill="#ffffff" fill-rule="nonzero" id="path17637" d="m246.591904,85.511497c5.411697,0.525002 -1.3125,7.251015 0,0l0,0"/>
      <path fill="#231f20" fill-rule="nonzero" id="path17639" d="m244.091095,113.012512c1.4133,0.287987 -0.123001,8.112007 -3.749985,7.5c0.363297,-3.387009 1.612488,-5.889 3.749985,-7.5"/>
      <path fill="#231f20" fill-rule="nonzero" id="path17641" d="m239.091904,199.262512c2.299194,2.376007 1.075806,11.849991 -2.500793,12.501007c-0.774612,-5.774994 2.8125,-7.203003 2.500793,-12.501007"/>
      <path fill="#231f20" fill-rule="nonzero" id="path17643" d="m236.59111,591.760925c4.537491,-0.298828 2.8125,12.10199 1.250381,13.750793c-7.886703,10.886719 -30.300003,13.275024 -46.250381,8.749207c2.500793,-4.637085 8.549988,-6.173401 13.750793,-8.749207c4.436707,-2.200806 9.262497,-5.912109 13.749588,-7.5c5.9133,-2.088318 14.287506,0.512085 17.499619,-6.250793"/>
      <path fill="#231f20" fill-rule="nonzero" id="path17645" d="m237.841492,214.262512c-0.536697,10.362015 -2.337906,21.248978 -5.000412,32.498978c-1.811691,-9.074997 4.03952,-24.524994 2.500809,-33.75c1.4496,-0.200974 2.225403,0.276016 2.499603,1.251022"/>
      <path fill="#231f20" fill-rule="nonzero" id="path17647" d="m230.341492,249.263519c0.813309,-3.528 1.4496,2.873993 1.250397,3.75c-0.575394,2.511002 -2.3508,1.011002 -1.250397,-3.75"/>
      <path fill="#231f20" fill-rule="nonzero" id="path17649" d="m231.591904,208.013519c-0.237915,1.409988 -1.250412,0.684006 -1.250412,0c-1.2117,0.035995 -0.974991,1.523987 -1.250381,2.498993c-1.36171,-0.311981 -0.848404,-2.489975 -2.499619,-2.498993c0.437119,-1.637985 2.199615,-1.965012 2.499619,-3.75c0.299988,1.236008 1.049988,3.398987 2.500793,3.75"/>
      <path fill="#231f20" fill-rule="nonzero" id="path17651" d="m229.09111,213.01149c3.75,0.825012 -1.200012,2.676025 0,5.001022c-3.112503,-0.189011 -0.362122,-4.238998 0,-5.001022"/>
      <path fill="#231f20" fill-rule="nonzero" id="path17653" d="m228.929398,203.399521c0.024597,0.062988 0.087891,0.32399 0.161713,0.863998c-0.112503,-0.453003 -0.161713,-0.789001 -0.161713,-0.863998"/>
      <path fill="#231f20" fill-rule="nonzero" id="path17655" d="m216.591904,529.261292c0.512085,-3.111267 4.849197,-0.073792 3.75,2.499634c-2.773804,0.689087 -1.775406,-2.385925 -3.75,-2.499634"/>
      <path fill="#231f20" fill-rule="nonzero" id="path17657" d="m196.591492,431.761292c-2.175003,-11.987091 -9.875397,-18.449982 -15,-27.500397c-0.262497,-1.511719 -1.387497,-0.774597 -2.499603,0c-4.475388,14.5383 0.011703,35.014496 17.499603,27.500397zm1.250397,-41.25c7.037109,4.563293 11.299194,15.951599 7.5,27.500397c2.087112,-13.674591 -7.713303,-30.561279 -21.250793,-21.250793c5.714096,9.28949 11.275787,18.726624 17.500793,27.500397c-3.249588,3.925812 -1.3125,5.275818 0,9.999603c-5.500809,0.9375 -7.524597,1.649994 -13.750793,3.75c-15.999603,-3.1875 -15.099594,-32.072998 -4.999207,-41.25c0.362106,-5.362518 -5.887497,-4.112091 -6.250793,-8.749207c1.113297,-0.549591 2.238297,-1.100403 2.500793,-2.500793c4.599609,0.824982 6.226212,4.613708 8.749207,7.5c2.738693,-1.423798 5.1129,-3.225006 10.000793,-2.499603"/>
      <path fill="#ffffff" fill-rule="nonzero" id="path17659" d="m201.591904,11.762514c0.550797,-1.850977 1.6008,0.486034 3.75,0c-0.312912,1.362011 -2.487915,0.849023 -2.500793,2.499023c-5.462112,-1.575001 -5.561707,-0.375 -9.999619,1.250977c1.512909,-6.927027 -4.974594,0.261035 -5.000381,-6.252027c5.976593,0.564038 5.275787,0.564038 11.25,0c-2.52301,2.565015 0.51329,2.502027 2.500793,3.75c1.412094,-0.236938 0.699585,-1.247973 0,-1.247973"/>
      <path fill="#231f20" fill-rule="nonzero" id="path17661" d="m144.091492,589.261292c0.600006,-6.486267 -7.812897,-9.049194 -5.000397,-13.749573c-0.8367,0 -1.661697,0 -2.499603,0c-0.761688,0.076172 -1.475403,0.18866 -1.250397,1.249207c1.912491,0.488647 0.1875,1.5 -1.249191,0c0,1.662903 0,3.337463 0,5.000366c5.474991,0.914124 -1.012497,-2.486694 2.499588,-2.499573c1.462494,0.212097 1.362915,1.974609 1.250412,3.75c-1.475403,0.199158 -3.549606,-0.213318 -3.75,1.249207c2.7117,1.875 2.912094,6.250793 7.5,6.250793c0.275391,-0.973816 1.049988,-1.449646 2.499588,-1.250427zm-5.000397,2.499634c0,3.425354 5.8629,7.364075 7.5,5.000366c-1.3992,-0.262512 -1.949997,-1.386292 -2.499603,-2.499573c0.700806,0 1.425003,-1.011292 0,-1.250427c-0.349197,2.950806 -3.337494,-1.436707 -5.000397,-1.250366zm5.000397,-16.249207c-1.187088,2.186707 4.612503,-0.386719 3.75,-1.250427c-1.062897,-1.061707 -3.5625,0.914124 -3.75,1.250427zm2.499603,-5.000427c0.387909,-1.686279 1.775406,-2.385864 1.250397,-5.000366c-3.986694,-1.060547 -4.749588,1.087463 -6.249588,2.500793c0.011703,-6.250793 -0.8508,-1.837524 -2.500809,-1.250427c0.250793,-0.08667 0.012909,-4.287903 -1.249191,-3.75c-0.875412,0.376221 0.774582,4.212891 -1.250412,3.75c-2.424591,-0.548401 -1.624191,-2.337891 -3.75,-3.75c-4.774185,5.987122 7.387512,3.699585 8.750412,7.5c-0.762909,0.076233 -1.475403,0.188721 -1.250412,1.250427c4.775406,1.02417 1.475403,-6.024597 6.249603,-5.000427c-0.174591,1.476624 -2.224197,2.838318 0,3.75zm5.000397,20.000427c-5.049591,-4.399231 -2.9496,4.025391 0,0l0,0zm0,-21.250793c0.762909,0.363281 4.812897,3.112488 5.000412,0c-4.437912,1.939453 -0.75,-4.248047 -3.75,-3.75c-0.062119,1.600769 -1.599609,1.724976 -1.250412,3.75c-0.074997,0.462891 -2.312103,-3.93634 -2.499588,-3.75c-1.900803,1.901978 1.925385,7.201172 2.499588,3.75zm2.499603,28.750793c1.800003,1.39917 3.0504,1.349976 3.75,-1.250427c-1.599609,-0.073792 -1.723801,-1.598389 -3.75,-1.250366c0,0.837891 0,1.662903 0,2.500793zm3.75,-20.000427c1.537491,-4.148376 -8.449203,-3.060913 -8.749191,-1.250366c4.837494,1.701599 4.924194,-0.536743 8.749191,1.250366zm-3.75,2.499634c1.625397,8.414063 10.188293,-2.798401 3.75,2.500793c-0.3246,-1.761292 -2.736298,-1.423828 -3.75,-2.500793zm6.250793,12.500366c0,-0.837891 0,-1.662903 0,-2.499573c-1.250397,0 -2.500793,0 -3.749985,0c0,0.83667 0,1.661682 0,2.499573c1.249191,0 2.499588,0 3.749985,0zm1.249207,-7.5c-3.799194,4.212891 4.625397,3.787537 0,0l0,0zm2.500809,9.999634c-3.412506,-0.112549 -2.512512,2.088257 -5.000412,0c0.0504,1.724976 -0.587097,2.750366 -1.250397,3.75c3.1875,-0.135925 4.375793,-2.287537 6.250809,-3.75zm2.499588,-11.25c-0.200394,-1.474243 0.212112,-3.549622 -1.250397,-3.75c-3.737091,3.337463 -2.099991,2.776184 1.250397,3.75zm3.75,6.250793c-2.587494,0.738281 -8.212494,-1.549194 -8.750397,1.249207c3.625793,1.326599 6,1.600769 8.750397,-1.249207zm0,-2.500793c0,-0.836731 0,-1.661743 0,-2.499634c-0.837891,0 -1.662903,0 -2.499603,0c0,0.837891 0,1.662903 0,2.499634c0.8367,0 1.661713,0 2.499603,0zm-1.250397,-4.999207c2.212494,-0.287109 6.262497,1.263306 5.000397,-2.500793c-2.324997,0.177002 -4.1754,0.824951 -5.000397,2.500793zm6.250793,6.249573c-6.4254,3.024597 4.300812,3.225037 0,0l0,0zm3.75,7.5c-1.799988,-2.762085 -3.0504,1.576233 -3.75,-1.250366c2.325012,-3.360901 -3.8004,1.58905 -5.000397,2.500793c1.574997,-5.286316 -1.9254,1.951172 -5.000397,-2.500793c1.938293,4.439087 -4.249191,0.75116 -3.75,3.75c6.824997,0.162903 13.325394,0 17.500793,-2.499634zm-3.75,-15c2.049606,0.712524 9.862503,-0.248413 7.5,-3.75c-1.049988,2.700012 -6.449997,1.051208 -7.5,3.75zm9.999603,8.750427c0.200409,-5.53833 -3.537903,0.588257 -5.000397,-2.500793c-0.199203,5.53949 3.537903,-0.587097 5.000397,2.500793zm-9.999603,-3.75c7.612503,-1.136719 15.525009,-1.97583 18.75,-7.5c-4.525787,3.038696 -15.0504,3.949158 -18.75,7.5zm12.499207,8.749207c0,-0.836731 0,-1.661743 0,-2.499634c-1.249207,0 -1.487106,-1.011292 -2.499603,-1.250366c0.125397,1.962891 -0.162903,4.339478 2.499603,3.75zm-2.499603,-16.249207c3.1875,-0.150024 6.438309,-0.236694 6.249603,-3.75c-2.175003,1.149597 -6.712494,-0.036316 -6.249603,3.75zm1.250397,8.749207c4.2117,0.801575 10.949997,-2.260498 7.5,-4.999207c-1.3629,2.799561 -6.13829,2.200806 -7.5,4.999207zm7.5,-17.499634c-1.524597,4.537537 2.01329,10.350037 4.999191,6.249634c-8.374191,-0.986694 1.439102,-13.650024 -3.75,-18.75c-2.699997,2.712891 -6.149979,4.714478 -8.749191,1.250366c0.2883,5.701233 -6.875397,3.962097 -10.000793,6.249634c-0.124207,-1.96051 0.162903,-4.337097 -2.499603,-3.75c3.824997,6.439453 -6.487503,4.775391 -12.500397,5.000366c0,3.75 0,7.5 0,11.25c13.199997,-0.135864 23.839493,-2.835876 32.500809,-7.5l-0.000015,0zm2.499603,-13.749573c10.212891,9.875366 4.926605,24.976196 -1.250412,34.999207c-3.986679,0.739502 -3.862488,-2.349609 -6.249588,0c5.150391,5.099976 -3.036301,4.189453 -7.5,6.250793c0.312897,-1.362915 2.4879,-0.85083 2.499603,-2.500793c-0.435898,-1.96051 -2.1996,1.087463 -2.499603,-1.249207c-2.310898,0.18866 -0.762894,4.238708 -2.499603,4.999207c-7.82579,0.925781 -15.800385,1.701599 -25.000793,1.250366c0.226196,-3.537903 -4.699203,-2.912109 -1.249191,-6.249573c-3.912918,0.863708 -1.625412,3.337463 -1.250412,6.249573c-7.537506,-2.874573 -17.724594,-3.111267 -20.000397,-11.25c1.675812,1.250427 2.450409,3.375 5.000397,3.75c-0.262497,-5.987061 -7.762497,-4.737915 -6.249603,-12.500366c1.012512,0.239075 1.249207,1.250366 2.499603,1.250366c-2.137497,-5.023804 -1.637085,-4.950012 -2.499603,-11.25c2.025009,-0.349182 2.150406,1.176636 3.750015,1.250427c0.862503,-5.023804 -5.262909,-3.075012 -5.000397,-7.5c6.262497,-0.512146 -0.42421,-3.887146 0,-6.250793c3.8004,-0.049194 4.863297,2.639099 7.499985,3.75c-0.424194,-3.323425 -3.275391,-4.224609 -6.249603,-4.999207c1.812897,-3.56134 7.487106,2.399963 12.499207,3.75c6.638702,1.788269 18.387909,1.062866 28.750793,1.249207c-1.5,1.639465 -0.487488,1.962891 0,3.75c1.699203,-0.385498 1.037109,-3.124207 1.249207,-4.999207c9.712494,0.550781 13.425003,-4.912537 23.750397,-3.75zm-40.374603,29.89917c-0.13829,-0.011658 -0.250793,-0.011658 -0.350403,-0.023376c0.099609,0.011719 0.225006,0.011719 0.350403,0.023376zm41.124603,-29.848816c0.074997,0 0.174591,0 0.262497,0.014099c-0.087906,-0.014099 -0.174606,-0.014099 -0.262497,-0.014099zm23.224197,-25.148376l0.637512,0.08551l0.762909,0.112488l0.337494,0.050415c-0.087906,-0.012878 -0.212112,-0.036316 -0.337494,-0.050415c-0.2742,-0.036316 -0.536713,-0.073792 -0.762909,-0.112488c-0.23671,-0.037476 -0.448792,-0.060913 -0.637512,-0.08551zm-1.223389,-0.177002l0.698395,0.10083c-0.300003,-0.050415 -0.535492,-0.073853 -0.698395,-0.10083"/>
      <path fill="#ffffff" fill-rule="nonzero" id="path17663" d="m199.09111,576.760925c-2.985901,4.100403 -6.523804,-1.712097 -4.999207,-6.249634c-8.661301,4.664124 -19.300797,7.364136 -32.500793,7.5c0,-3.75 0,-7.5 0,-11.25c6.012894,-0.224976 16.325394,1.439087 12.500397,-5.000366c2.662491,-0.587097 2.375397,1.78949 2.499603,3.75c3.125397,-2.287537 10.289093,-0.548401 10.000793,-6.249634c2.599197,3.464111 6.049194,1.462524 8.749207,-1.250366c5.189087,5.099976 -4.624207,17.763306 3.75,18.75"/>
      <path fill="#ffffff" fill-rule="nonzero" id="path17665" d="m194.091904,583.011719c3.449997,2.738708 -3.2883,5.800781 -7.5,4.999207c1.361694,-2.798401 6.137085,-2.199646 7.5,-4.999207"/>
      <path fill="#ffffff" fill-rule="nonzero" id="path17667" d="m191.591095,575.511719c0.188705,3.513306 -3.062103,3.599976 -6.249603,3.75c-0.462891,-3.786316 4.0746,-2.600403 6.249603,-3.75"/>
      <path fill="#ffffff" fill-rule="nonzero" id="path17669" d="m181.591492,404.260895c5.124603,9.050415 12.824997,15.513306 15,27.500397c-17.4879,7.51413 -21.974991,-12.962097 -17.499603,-27.500397c1.112106,-0.774597 2.237106,-1.511688 2.499603,0"/>
      <path fill="#231f20" fill-rule="nonzero" id="path17671" d="m189.091492,613.011719c6.399597,6.438293 -5.837097,5.874634 -6.323395,11.237122c-5.626205,-0.837891 -4.489502,-0.735962 1.322998,-3.737122c-1.462494,-1.374634 -9.262497,1.511719 -11.25,3.75c-1.849197,-0.549622 0.487503,-1.599609 0,-3.75c-0.8367,0 -1.661697,0 -2.499603,0c-1.425003,0.237854 -0.6996,1.249207 0,1.249207c-0.200394,1.462524 -2.274597,1.051147 -3.75,1.250427c0,2.499573 0,5.000366 0,7.5c-3.087891,0.162842 -6.024597,0.18866 -7.5,-1.250427c5.237106,-2.612122 -1.325394,-3.423035 1.250397,-6.249573c-0.837891,0 -1.662903,0 -2.500793,0c-0.737091,6.37616 -14.43631,1.576172 -16.249191,-5.000427c12.962082,-0.298828 36.812088,3.837891 47.499588,-4.999207"/>
      <path fill="#231f20" fill-rule="nonzero" id="path17673" d="m181.591492,555.511292c-2.623795,-1.110901 4.475403,-2.912109 7.5,-2.499573c-1.2621,2.074158 -5.312103,1.362854 -7.5,2.499573"/>
      <path fill="#ffffff" fill-rule="nonzero" id="path17675" d="m187.841095,593.011292c0,0.837891 0,1.662903 0,2.499634c-2.662506,0.589478 -2.374207,-1.787109 -2.499603,-3.75c1.012497,0.239075 1.250397,1.250366 2.499603,1.250366"/>
      <path fill="#231f20" fill-rule="nonzero" id="path17677" d="m184.091095,483.010895c-3.1371,-0.536682 2.075394,-2.685883 3.75,-2.499603c-0.911697,1.163727 -2.274597,1.889099 -3.75,2.499603"/>
      <path fill="#ffffff" fill-rule="nonzero" id="path17679" d="m194.091904,579.261719c-3.225006,5.52417 -11.137497,6.363281 -18.75,7.5c3.6996,-3.550842 14.224197,-4.461304 18.75,-7.5"/>
      <path fill="#ffffff" fill-rule="nonzero" id="path17681" d="m180.341095,588.010925c1.462494,3.08905 5.200806,-3.037537 5.000397,2.500793c-1.462494,-3.087891 -5.1996,3.038696 -5.000397,-2.500793"/>
      <path fill="#ffffff" fill-rule="nonzero" id="path17683" d="m182.841888,578.011292c2.362503,3.501587 -5.450394,4.462524 -7.5,3.75c1.050003,-2.698792 6.450012,-1.049988 7.5,-3.75"/>
      <path fill="#231f20" fill-rule="nonzero" id="path17685" d="m182.841888,624.261719c-0.024597,0 -0.0504,0 -0.073792,0.012878c-0.014099,-0.012878 0,-0.025757 0,-0.025757c0.023392,0 0.049194,0.012878 0.073792,0.012878"/>
      <path fill="#231f20" fill-rule="nonzero" id="path17687" d="m182.768097,624.274597c-0.0504,0.375 -0.027008,0.787476 0.073792,1.236328c-1.3629,-0.224976 -0.748795,-1.173035 -0.073792,-1.236328"/>
      <path fill="#ffffff" fill-rule="nonzero" id="path17689" d="m181.929001,561.811279l-0.337509,-0.050354c0.125397,0.014099 0.249603,0.037476 0.337509,0.050354"/>
      <path fill="#ffffff" fill-rule="nonzero" id="path17691" d="m181.591492,561.760925l-0.762894,-0.112549c0.226196,0.038696 0.488693,0.076233 0.762894,0.112549"/>
      <path fill="#ffffff" fill-rule="nonzero" id="path17693" d="m180.828598,561.648376l-0.637497,-0.085449c0.18869,0.024597 0.400787,0.047974 0.637497,0.085449"/>
      <path fill="#ffffff" fill-rule="nonzero" id="path17695" d="m179.666092,561.486694l-0.698395,-0.100769c0.162903,0.026978 0.398392,0.050354 0.698395,0.100769"/>
      <path fill="#231f20" fill-rule="nonzero" id="path17697" d="m179.091888,9.260488c0,1.250977 0,2.502027 0,3.75c-3.412491,-0.912012 -2.512497,2.490014 -5.000397,2.502027c-1.775391,3.335962 2.175003,-6.177027 5.000397,-6.252027"/>
      <path fill="#ffffff" fill-rule="nonzero" id="path17699" d="m175.341888,595.510925c0.6996,2.826599 1.950012,-1.511719 3.75,1.250366c-4.1754,2.499634 -10.675797,2.662537 -17.500793,2.499634c-0.499191,-2.99884 5.688293,0.689087 3.75,-3.75c3.074997,4.451965 6.575394,-2.785522 5.000397,2.500793c1.199997,-0.911743 7.325409,-5.861694 5.000397,-2.500793"/>
      <path fill="#ffffff" fill-rule="nonzero" id="path17701" d="m175.341888,589.261292c4.300812,3.225037 -6.4254,3.024597 0,0l0,0"/>
      <path fill="#ffffff" fill-rule="nonzero" id="path17703" d="m174.091492,580.510925c1.2621,3.764099 -2.787903,2.213684 -5.000397,2.500793c0.824997,-1.675842 2.6754,-2.323792 5.000397,-2.500793"/>
      <path fill="#ffffff" fill-rule="nonzero" id="path17705" d="m170.341492,585.511292c0,0.837891 0,1.662903 0,2.499634c-0.837891,0 -1.662903,0 -2.499603,0c0,-0.836731 0,-1.661743 0,-2.499634c0.8367,0 1.661713,0 2.499603,0"/>
      <path fill="#ffffff" fill-rule="nonzero" id="path17707" d="m161.591095,591.760925c0.537903,-2.798401 6.162903,-0.510925 8.750397,-1.249207c-2.750397,2.849976 -5.124603,2.575806 -8.750397,1.249207"/>
      <path fill="#231f20" fill-rule="nonzero" id="path17709" d="m167.841888,341.761292c0.037506,-0.212097 0.099609,-0.412506 0.174606,-0.587097c-0.024597,0.18869 -0.074997,0.375 -0.174606,0.587097"/>
      <path fill="#ffffff" fill-rule="nonzero" id="path17711" d="m165.341095,580.510925c1.462509,0.200378 1.050003,2.275757 1.250397,3.75c-3.350388,-0.973816 -4.987488,-0.412537 -1.250397,-3.75"/>
      <path fill="#ffffff" fill-rule="nonzero" id="path17713" d="m159.091492,595.510925c2.4879,2.088257 1.587906,-0.112549 5.000412,0c-1.875015,1.462463 -3.063309,3.614075 -6.250809,3.75c0.6633,-0.999634 1.300797,-2.025024 1.250397,-3.75"/>
      <path fill="#ffffff" fill-rule="nonzero" id="path17715" d="m161.591095,585.511292c4.625397,3.787537 -3.799194,4.212891 0,0l0,0"/>
      <path fill="#231f20" fill-rule="nonzero" id="path17717" d="m155.341492,558.010925c0.150009,-2.762146 5.3004,-0.536743 7.5,-1.249207c-0.149994,2.762085 -5.3004,0.524963 -7.5,1.249207"/>
      <path fill="#ffffff" fill-rule="nonzero" id="path17719" d="m160.341888,590.511719c0,0.83667 0,1.661682 0,2.499573c-1.250397,0 -2.500793,0 -3.749985,0c0,-0.837891 0,-1.662903 0,-2.499573c1.249191,0 2.499588,0 3.749985,0"/>
      <path fill="#ffffff" fill-rule="nonzero" id="path17721" d="m157.841095,583.011719c6.438293,-5.299194 -2.124603,5.913269 -3.75,-2.500793c1.013702,1.076965 3.4254,0.739502 3.75,2.500793"/>
      <path fill="#ffffff" fill-rule="nonzero" id="path17723" d="m150.341095,344.260895c4.338303,-0.999603 4.800003,1.863312 8.750397,1.250397c-0.299988,1.812927 -10.286697,2.900421 -8.750397,-1.250397"/>
      <path fill="#ffffff" fill-rule="nonzero" id="path17725" d="m149.091904,576.760925c0.299988,-1.810547 10.286682,-2.89801 8.749191,1.250366c-3.824997,-1.787109 -3.911697,0.451233 -8.749191,-1.250366"/>
      <path fill="#ffffff" fill-rule="nonzero" id="path17727" d="m157.229401,586.725403c-0.087906,-0.014099 -0.187515,-0.014099 -0.262497,-0.014099c0.087891,0 0.174591,0 0.262497,0.014099"/>
      <path fill="#ffffff" fill-rule="nonzero" id="path17729" d="m157.841095,596.761292c-0.6996,2.600403 -1.949997,2.649597 -3.75,1.250427c0,-0.837891 0,-1.662903 0,-2.500793c2.026199,-0.348022 2.150391,1.176575 3.75,1.250366"/>
      <path fill="#ffffff" fill-rule="nonzero" id="path17731" d="m155.866486,586.637512c0.099609,0.011719 0.212112,0.011719 0.350403,0.023376c-0.125397,-0.011658 -0.250793,-0.011658 -0.350403,-0.023376"/>
      <path fill="#231f20" fill-rule="nonzero" id="path17733" d="m142.841095,625.510925c2.988297,-2.499573 8.275803,3.337524 13.750809,2.500793c-4.6875,4.201172 -9.162903,-2.450378 -13.750809,-2.500793"/>
      <path fill="#ffffff" fill-rule="nonzero" id="path17735" d="m156.591904,569.260925c-0.187515,3.112488 -4.237503,0.363281 -5.000412,0c-0.349197,-2.025024 1.188293,-2.149231 1.250412,-3.75c3,-0.498047 -0.687912,5.689453 3.75,3.75"/>
      <path fill="#ffffff" fill-rule="nonzero" id="path17737" d="m155.341492,434.260895c-3.200394,0.050415 -1.524597,-0.923401 -1.250397,-2.499603c-7.237503,3.20163 -7.149597,-4.29837 -8.749207,-9.999573c7.725006,-0.225006 7.025406,7.974579 9.999603,12.499176"/>
      <path fill="#ffffff" fill-rule="nonzero" id="path17739" d="m154.091095,49.262512c-0.536697,3.137989 -2.687103,-2.076012 -2.499603,-3.75c-1.699188,0.387012 -1.037094,3.123013 -1.250397,4.998013c-2.237091,0.164978 -2.636703,-1.524025 -4.999207,-1.248013c0.537903,-1.962009 3.9375,-1.062012 2.499603,-5.001011c1.662903,0 3.337494,0 5.000412,0c2.186691,2.549999 -0.9375,2.451012 1.249191,5.001011"/>
      <path fill="#231f20" fill-rule="nonzero" id="path17741" d="m152.841904,304.262512c-0.537903,3.462006 -3.9375,0.059967 -2.500809,-2.498993c1.3629,0.311981 0.8508,2.483978 2.500809,2.498993"/>
      <path fill="#ffffff" fill-rule="nonzero" id="path17743" d="m149.091904,565.510925c0.187485,-0.18634 2.424591,4.212891 2.499588,3.75c-0.574203,3.451172 -4.400391,-1.848022 -2.499588,-3.75"/>
      <path fill="#ffffff" fill-rule="nonzero" id="path17745" d="m151.591492,590.511719c-2.9496,4.025391 -5.049591,-4.399231 0,0l0,0"/>
      <path fill="#ffffff" fill-rule="nonzero" id="path17747" d="m147.841492,565.510925c0.525009,2.614502 -0.862488,3.314087 -1.250397,5.000366c-2.224197,-0.911682 -0.174591,-2.273376 0,-3.75c-4.7742,-1.02417 -1.474197,6.024597 -6.249603,5.000427c-0.224991,-1.061707 0.487503,-1.174194 1.250412,-1.250427c-1.3629,-3.800415 -13.524597,-1.512878 -8.750412,-7.5c2.125809,1.412109 1.325409,3.201599 3.75,3.75c2.024994,0.462891 0.375,-3.373779 1.250412,-3.75c1.2621,-0.537903 1.499985,3.66333 1.249191,3.75c1.650009,-0.587097 2.512512,-5.000366 2.500809,1.250427c1.5,-1.41333 2.262894,-3.56134 6.249588,-2.500793"/>
      <path fill="#ffffff" fill-rule="nonzero" id="path17749" d="m147.841492,574.261292c0.862503,0.863708 -4.937088,3.437134 -3.75,1.250427c0.1875,-0.336304 2.687103,-2.312134 3.75,-1.250427"/>
      <path fill="#ffffff" fill-rule="nonzero" id="path17751" d="m147.841492,70.511497c0,1.66201 0,3.339005 0,5.001015c-4.162506,0 -8.3367,0 -12.500397,0c-0.523804,-2.613022 0.862503,-3.312012 1.250397,-5.001015c1.425003,0.237015 0.700806,1.251015 0,1.251015c3.537903,1.961975 7.237503,-1.689003 11.25,-1.251015"/>
      <path fill="#ffffff" fill-rule="nonzero" id="path17753" d="m149.091904,345.511292c-7.362915,1.912506 -16.362915,-5.286285 -23.750404,-7.5c6.637505,-1.199982 14.724602,6.924591 23.750404,7.5"/>
      <path fill="#ffffff" fill-rule="nonzero" id="path17755" d="m146.591095,596.761292c-1.6371,2.363708 -7.5,-1.575012 -7.5,-5.000366c1.662903,-0.18634 4.651199,4.201172 5.000397,1.250366c1.425003,0.239136 0.700806,1.250427 0,1.250427c0.549606,1.113281 1.100403,2.237061 2.499603,2.499573"/>
      <path fill="#231f20" fill-rule="nonzero" id="path17757" d="m141.591904,511.761688c0.6996,-4.187073 5.25,6.66214 1.249191,0c-0.024597,-0.050385 -1.249191,0.025818 -1.249191,0"/>
      <path fill="#231f20" fill-rule="nonzero" id="path17759" d="m141.591904,526.761719c-2.9496,-8.850037 6.112488,6.850769 1.249191,0c-0.111298,-0.10083 -1.2117,0.125366 -1.249191,0"/>
      <path fill="#ffffff" fill-rule="nonzero" id="path17761" d="m144.091492,98.012512c3,7.998009 -12.212097,0.560997 -17.499588,1.248009c-1.113304,-2.598007 8.512497,-0.335999 3.749985,-2.499023c0.537903,-2.798988 6.162903,-0.512985 8.749207,-1.250977c-0.1371,2.237991 4.31369,8.889 5.000397,2.501991"/>
      <path fill="#ffffff" fill-rule="nonzero" id="path17763" d="m139.091095,589.261292c7.137909,1.263306 0.151199,-8.248779 0,-6.249573c0.875397,3.849609 0.875397,2.399963 0,6.249573zm0,-13.749573c-2.8125,4.700378 5.600403,7.263306 5.000397,13.749573c-1.4496,-0.199219 -2.224197,0.276611 -2.499588,1.250427c-4.587906,0 -4.7883,-4.375793 -7.5,-6.250793c0.200394,-1.462524 2.274597,-1.050049 3.75,-1.249207c0.112503,-1.775391 0.212082,-3.537903 -1.250412,-3.75c-3.512085,0.012878 2.975403,3.413696 -2.499588,2.499573c0,-1.662903 0,-3.337463 0,-5.000366c1.436691,1.5 3.161682,0.488647 1.249191,0c-0.225006,-1.060547 0.488708,-1.173035 1.250397,-1.249207c0.837906,0 1.662903,0 2.499603,0"/>
      <path fill="#231f20" fill-rule="nonzero" id="path17765" d="m144.091492,608.011353c-5.25,0.249573 -2.750397,-7.250427 -7.5,-7.500061c3.687897,-3.611694 7.5,3.275452 7.5,7.500061"/>
      <path fill="#231f20" fill-rule="nonzero" id="path17767" d="m141.591904,551.761292c2.424591,0.113708 -2.637909,5.349609 3.749985,3.75c-2.662491,4.275024 -17.762085,-3.849609 -17.500793,-11.25c2.8629,1.725037 2.937897,6.226196 6.250809,7.5c4.687485,-0.987915 0.074997,-4.374573 2.499588,-6.249573c3.287109,-0.375 0.987915,4.849182 5.000412,3.75c-0.187515,2.313293 -4.237503,0.762878 -5.000412,2.499573c-0.899994,2.025024 5.900406,2.025024 5.000412,0"/>
      <path fill="#231f20" fill-rule="nonzero" id="path17769" d="m141.591904,545.511719c3.224991,-4.299622 3.024582,6.425354 0,0l0,0"/>
      <path fill="#ffffff" fill-rule="nonzero" id="path17771" d="m141.591904,20.510525c6.287094,2.762987 -1.563309,6.851988 -1.250412,11.249998c-3.137085,-2.423986 1.462494,-7.610998 1.250412,-11.249998"/>
      <path fill="#231f20" fill-rule="nonzero" id="path17773" d="m139.091095,583.011719c0.151199,-1.999207 7.137909,7.512878 0,6.249573c0.875397,-3.849609 0.875397,-2.399963 0,-6.249573"/>
      <path fill="#ffffff" fill-rule="nonzero" id="path17775" d="m137.841904,493.011719c0.812088,-3.523804 1.4496,2.875793 1.249191,3.749969c-0.574188,2.513702 -2.349609,1.013702 -1.249191,-3.749969"/>
      <path fill="#ffffff" fill-rule="nonzero" id="path17777" d="m139.091095,124.262512c-0.711304,1.160995 -3.474609,1.887009 -1.249191,2.498985c-5.287506,3.974998 -11.425797,-1.875 -16.250404,-2.498985c0.762894,-1.112991 1.512894,-2.237991 0,-2.501991c8.912102,-3.474022 7.312492,2.175003 13.749596,0c-0.587097,2.664001 1.7883,2.375977 3.75,2.501991"/>
      <path fill="#231f20" fill-rule="nonzero" id="path17779" d="m134.091904,525.511292c4.199997,-1.286682 1.949982,3.888306 2.499588,6.249634c-2.737488,-0.18634 -2.687088,-3.148804 -2.499588,-6.249634"/>
      <path fill="#ffffff" fill-rule="nonzero" id="path17781" d="m135.341095,344.260895c0,0.837891 0,1.662903 0,2.500824c-0.8367,0 -1.661697,0 -2.499603,0c0,-0.837921 0,-1.662933 0,-2.500824c0.837906,0 1.662903,0 2.499603,0"/>
      <path fill="#231f20" fill-rule="nonzero" id="path17783" d="m134.928604,396.687103c-0.2742,0.350403 -0.549606,0.786285 -0.8367,1.324188c0.249588,-0.774597 0.537888,-1.185883 0.8367,-1.324188"/>
      <path fill="#231f20" fill-rule="nonzero" id="path17785" d="m139.091095,280.511505c-5.612106,-1.476013 -6.04921,-8.11203 -11.25,-9.998993c7.238708,-5.774994 11.075409,2.498993 11.25,9.998993"/>
      <path fill="#ffffff" fill-rule="nonzero" id="path17787" d="m132.841492,149.261505c0.200394,1.448975 -0.275391,2.226013 -1.250397,2.501984c0.037506,1.209015 1.525803,0.972 2.500809,1.248001c-4.012497,2.237991 -11.850006,-1.973984 -15.000008,-1.248001c-1.700401,-0.389984 -1.0383,-3.125977 -1.250397,-5.000977c6.738297,0.899994 10.400398,1.125 14.999992,2.498993"/>
      <path fill="#ffffff" fill-rule="nonzero" id="path17789" d="m135.341095,224.26149c-6.424194,-4.962006 -13.149597,2.763 -15,-4.998001c5.525398,1.134003 12.837891,0.498001 15,4.998001"/>
      <path fill="#ffffff" fill-rule="nonzero" id="path17791" d="m129.091507,18.011501c1.599594,2.901012 -3.999611,9.287987 -5.000412,13.748985c-3.637497,-4.934984 4.612503,-8.672974 5.000412,-13.748985"/>
      <path fill="#ffffff" fill-rule="nonzero" id="path17793" d="m129.091507,178.013519c-4.787109,2.534988 -13.050011,-0.701981 -15.000008,-5.001007c5.8629,0.813019 14.187889,-0.863998 15.000008,5.001007"/>
      <path fill="#ffffff" fill-rule="nonzero" id="path17795" d="m121.591499,413.011292c0.474594,-2.374207 1.587898,0.801605 1.250397,2.499603c-0.474602,2.376617 -1.587898,-0.798004 -1.250397,-2.499603"/>
      <path fill="#ffffff" fill-rule="nonzero" id="path17797" d="m120.341095,28.010523c2.225403,0.915016 0.175804,2.276991 0,3.75c-2.224197,-0.91201 -0.174599,-2.273987 0,-3.75"/>
      <path fill="#ffffff" fill-rule="nonzero" id="path17799" d="m121.591499,336.760895c-5.1996,1.701599 -10.3992,-3.047974 -15,-6.248383c-8.812508,-6.138 -17.224205,-13.326019 -22.500008,-23.751007c4.374603,-4.223999 0.837906,-9.213013 1.250404,-16.247986c1.9254,-1.638031 1.299599,7.760986 2.499596,11.25c3.687904,10.748993 14.274605,21.561005 22.500008,27.497986c4.049995,2.925598 9.625793,3.251404 11.25,7.49939zm-32.600403,-25.961365l0.138306,0.323975c-0.037506,-0.098999 -0.087906,-0.201019 -0.138306,-0.323975"/>
      <path fill="#ffffff" fill-rule="nonzero" id="path17801" d="m119.091896,19.262514c3.624603,0.698986 -1.912498,1.949999 -1.250397,3.75c-4.137901,-1.22699 1.400398,-2.475 1.250397,-3.75"/>
      <path fill="#231f20" fill-rule="nonzero" id="path17803" d="m117.841499,319.262512c0.375,1.5 -0.1875,0.659973 -1.250404,-0.812988c0.375,0.347961 0.787498,0.623993 1.250404,0.812988"/>
      <path fill="#ffffff" fill-rule="nonzero" id="path17805" d="m115.341904,63.011501c2.212502,-0.398987 2.224205,6.998981 -1.250404,5.001011c0.974998,-1.113022 1.349998,-2.826012 1.250404,-5.001011"/>
      <path fill="#231f20" fill-rule="nonzero" id="path17807" d="m115.1661,316.523499c0.537895,0.675018 1.012497,1.350006 1.424995,1.926025c-0.5625,-0.513031 -1.037102,-1.176025 -1.424995,-1.926025"/>
      <path fill="#ffffff" fill-rule="nonzero" id="path17809" d="m111.591904,80.510521c5.0625,0.525002 -1.713303,8.490013 0,13.751991c-5.162102,-1.811974 1.6875,-7.71299 0,-13.751991"/>
      <path fill="#ffffff" fill-rule="nonzero" id="path17811" d="m107.841904,104.261497c0.949196,1.839005 0.812096,13.262993 -3.75,13.748985c1.624199,-4.211975 -0.1371,-11.798981 3.75,-13.748985"/>
      <path fill="#ffffff" fill-rule="nonzero" id="path17813" d="m104.091904,38.012512c0.999596,0.662991 2.024994,1.298988 3.75,1.248013c-0.363304,4.349998 -3.387901,-0.099026 -3.75,2.501987c-1.850403,-0.551991 0.487495,-1.60199 0,-3.75"/>
      <path fill="#ffffff" fill-rule="nonzero" id="path17815" d="m106.591499,303.011505c0.037498,0.789001 0.112495,1.562988 0.2379,2.324982c-0.2379,-0.698975 -0.350403,-1.460999 -0.2379,-2.324982"/>
      <path fill="#ffffff" fill-rule="nonzero" id="path17817" d="m104.091904,138.011505c0.674995,3.548981 -3.825005,-7.275009 -3.75,-11.250008c4.237495,0.762009 1.587898,8.41201 3.75,11.250008"/>
      <path fill="#231f20" fill-rule="nonzero" id="path17819" d="m100.341904,24.260525c-7.338303,4.401012 -3.387901,8.364002 0,0l0,0zm6.249596,-7.5c-4.6875,7.815014 -7.374596,17.624996 -12.500397,25.001987c-4.674599,-2.012989 5.8629,-11.687986 -2.499603,-10.001989c4.625404,-5.373009 6.575401,-13.424999 15,-14.999998"/>
      <path fill="#ffffff" fill-rule="nonzero" id="path17821" d="m100.341904,24.260525c-3.387901,8.364002 -7.338303,4.401012 0,0l0,0"/>
      <path fill="#ffffff" fill-rule="nonzero" id="path17823" d="m91.591492,181.763519c1.8246,2.309982 -1.274994,10.334991 -2.499596,13.748993c-4.0746,-0.200974 0.875404,-11.111984 2.499596,-13.748993"/>
      <path fill="#231f20" fill-rule="nonzero" id="path17825" d="m89.091904,38.012512c2.024994,1.223988 2.874603,3.335999 1.249199,4.998013c-1.699196,-0.387012 -1.037102,-3.123013 -1.249199,-4.998013"/>
      <path fill="#231f20" fill-rule="nonzero" id="path17827" d="m89.129402,311.123505l-0.138298,-0.323975c0.0504,0.122955 0.1008,0.224976 0.138298,0.323975"/>
      <path fill="#ffffff" fill-rule="nonzero" id="path17829" d="m86.591095,270.512512c0.4758,-2.376007 1.587906,0.798004 1.250397,2.498993c-0.474594,2.376007 -1.587891,-0.797974 -1.250397,-2.498993"/>
      <path fill="#ffffff" fill-rule="nonzero" id="path17831" d="m85.341904,208.013519c3.549599,1.662018 -0.963303,5.559006 -1.250397,7.5c-2.612106,-0.726013 1.799995,-4.727997 1.250397,-7.5"/>
      <path fill="#ffffff" fill-rule="nonzero" id="path17833" d="m69.091499,305.513519c0.0504,0.860992 0.1875,1.721985 0.387901,2.546997c-0.588394,-0.561005 -0.925888,-1.412994 -0.387901,-2.546997"/>
      <path fill="#ffffff" fill-rule="nonzero" id="path17835" d="m47.841812,289.262512c0.474598,-2.376007 1.586697,0.798004 1.249199,2.498993c-0.474602,2.376007 -1.5867,-0.797974 -1.249199,-2.498993"/>
      <path fill="#231f20" fill-rule="nonzero" id="path17837" d="m47.841812,229.262512c0,0.837006 0,1.662003 0,2.498978c-0.837902,0 -1.662903,0 -2.500801,0c0,-0.836975 0,-1.661972 0,-2.498978c0.837898,0 1.662899,0 2.500801,0"/>
     </g>
    </g>
   </g>
  </g>
 </g>
</svg>